<svg width="50" height="49" viewBox="0 0 50 49" fill="none" xmlns="http://www.w3.org/2000/svg">
<path fill-rule="evenodd" clip-rule="evenodd" d="M38.0033 27.0722C33.3949 29.0075 27.4718 31.4948 26.5992 37.4403C29.8148 38.1281 42.9836 39.9656 42.5242 24.8063C41.5111 25.5992 39.8644 26.2907 38.0033 27.0722ZM38.6961 30.625C31.8361 32.2175 29.3555 34.3 28.5899 36.9032C29.4814 36.0116 31.1145 35.3055 32.8283 34.5644C35.2354 33.5236 37.8017 32.4139 38.6961 30.625Z" fill="url(#paint0_linear_257_26)"/>
<path fill-rule="evenodd" clip-rule="evenodd" d="M12.0763 27.0722C16.6848 29.0075 22.6078 31.4948 23.4804 37.4403C20.2648 38.1281 7.09607 39.9656 7.55544 24.8063C8.56856 25.5992 10.2153 26.2907 12.0763 27.0722ZM11.3836 30.625C18.2436 32.2175 20.7242 34.3 21.4899 36.9032C20.5983 36.0116 18.9652 35.3055 17.2514 34.5644C14.8443 33.5236 12.278 32.4139 11.3836 30.625Z" fill="url(#paint1_linear_257_26)"/>
<path d="M20.4743 19.9063C15.115 16.6906 13.5327 14.9552 12.0525 13.3219C10.6744 29.0938 21.5462 28.0219 21.5462 28.0219C20.9337 25.4188 16.34 24.0406 14.9619 20.5188C20.015 23.5813 22.465 24.9594 23.8431 28.7875C24.3025 30.1656 24.3025 30.9313 24.4556 34.7594L25.0681 33.9938L25.8337 34.7594C25.8337 34.1469 25.6806 30.7782 26.2931 28.6344C28.0081 25.0819 29.3556 24.0406 35.1743 20.5188C34.4087 23.275 28.1306 26.7969 28.59 28.0219C29.815 28.0219 39.4618 28.175 38.0837 13.475C34.715 17.15 30.8868 19.1406 29.3556 20.2125C28.1306 21.07 25.9868 24.449 25.0681 26.0313L24.915 25.8781C23.2306 22.9688 23.0775 21.7438 20.4743 19.9063Z" fill="url(#paint2_linear_257_26)"/>
<path d="M25.068 12.5563C24.7618 12.5563 24.3024 17.3031 24.3024 21.8969C19.0962 17.4563 22.0055 12.25 25.068 7.96252C31.9587 16.8438 27.3649 20.825 25.8337 21.8969C25.8337 20.2125 25.8337 13.0156 25.068 12.5563Z" fill="url(#paint3_linear_257_26)"/>
<path fill-rule="evenodd" clip-rule="evenodd" d="M25 49C38.531 49 49.5 38.031 49.5 24.5C49.5 10.969 38.531 0 25 0C11.469 0 0.5 10.969 0.5 24.5C0.5 38.031 11.469 49 25 49ZM36.6375 41.4016C42.0025 37.7005 45.5187 31.5109 45.5187 24.5C45.5187 13.1678 36.3322 3.98124 25 3.98124C13.6678 3.98124 4.48123 13.1678 4.48123 24.5C4.48123 31.5774 8.0644 37.8178 13.5156 41.5063C14.2162 41.3132 14.791 41.1339 15.3267 40.9667C17.3668 40.33 18.8405 39.8701 24.5406 39.5062C24.8219 39.5233 25.0914 39.5394 25.3505 39.5549C29.7444 39.8174 31.1427 39.901 36.6375 41.4016Z" fill="url(#paint4_linear_257_26)"/>
<defs>
<linearGradient id="paint0_linear_257_26" x1="21.4515" y1="29.033" x2="29.1291" y2="43.5071" gradientUnits="userSpaceOnUse">
<stop stop-color="#73DFE7"/>
<stop offset="1" stop-color="#0063F7"/>
</linearGradient>
<linearGradient id="paint1_linear_257_26" x1="28.6281" y1="29.033" x2="20.9506" y2="43.5071" gradientUnits="userSpaceOnUse">
<stop stop-color="#73DFE7"/>
<stop offset="1" stop-color="#0063F7"/>
</linearGradient>
<linearGradient id="paint2_linear_257_26" x1="3.44097" y1="20.2464" x2="15.9709" y2="44.0292" gradientUnits="userSpaceOnUse">
<stop stop-color="#73DFE7"/>
<stop offset="1" stop-color="#0063F7"/>
</linearGradient>
<linearGradient id="paint3_linear_257_26" x1="19.0781" y1="12.4635" x2="28.744" y2="20.3177" gradientUnits="userSpaceOnUse">
<stop stop-color="#73DFE7"/>
<stop offset="1" stop-color="#0063F7"/>
</linearGradient>
<linearGradient id="paint4_linear_257_26" x1="-15.3274" y1="15.8274" x2="16.3274" y2="64.8274" gradientUnits="userSpaceOnUse">
<stop stop-color="#73DFE7"/>
<stop offset="1" stop-color="#0063F7"/>
</linearGradient>
</defs>
</svg>
