<svg xmlns="http://www.w3.org/2000/svg" width="100" height="100" viewBox="0 0 49 49" fill="none">
<path fill-rule="evenodd" clip-rule="evenodd" d="M37.5033 27.0722C32.8949 29.0074 26.9718 31.4948 26.0992 37.4403C29.3148 38.1281 42.4836 39.9656 42.0242 24.8062C41.0111 25.5991 39.3644 26.2906 37.5033 27.0722ZM38.1961 30.625C31.3361 32.2175 28.8555 34.3 28.0899 36.9031C28.9814 36.0116 30.6145 35.3054 32.3283 34.5644C34.7354 33.5235 37.3017 32.4139 38.1961 30.625Z" fill="url(#paint0_linear_1553_1159)"/>
<path fill-rule="evenodd" clip-rule="evenodd" d="M11.5763 27.0722C16.1848 29.0074 22.1078 31.4948 22.9804 37.4403C19.7648 38.1281 6.59606 39.9656 7.05544 24.8062C8.06856 25.5991 9.71525 26.2906 11.5763 27.0722ZM10.8836 30.625C17.7436 32.2175 20.2242 34.3 20.9899 36.9031C20.0983 36.0116 18.4652 35.3054 16.7514 34.5644C14.3443 33.5235 11.778 32.4139 10.8836 30.625Z" fill="url(#paint1_linear_1553_1159)"/>
<path d="M19.9743 19.9063C14.615 16.6906 13.0327 14.9552 11.5525 13.3219C10.1743 29.0938 21.0462 28.0219 21.0462 28.0219C20.4337 25.4188 15.84 24.0406 14.4618 20.5188C19.515 23.5813 21.965 24.9594 23.3431 28.7875C23.8025 30.1656 23.8025 30.9313 23.9556 34.7594L24.5681 33.9938L25.3337 34.7594C25.3337 34.1469 25.1806 30.7781 25.7931 28.6344C27.5081 25.0819 28.8556 24.0406 34.6743 20.5188C33.9087 23.275 27.6306 26.7969 28.09 28.0219C29.315 28.0219 38.9618 28.175 37.5837 13.475C34.215 17.15 30.3868 19.1406 28.8556 20.2125C27.6306 21.07 25.4868 24.449 24.5681 26.0313L24.415 25.8781C22.7306 22.9688 22.5775 21.7438 19.9743 19.9063Z" fill="url(#paint2_linear_1553_1159)"/>
<path d="M24.568 12.5563C24.2618 12.5563 23.8024 17.3031 23.8024 21.8969C18.5962 17.4563 21.5055 12.25 24.568 7.96251C31.4587 16.8438 26.8649 20.825 25.3337 21.8969C25.3337 20.2125 25.3337 13.0156 24.568 12.5563Z" fill="url(#paint3_linear_1553_1159)"/>
<path fill-rule="evenodd" clip-rule="evenodd" d="M24.5 49C38.031 49 49 38.031 49 24.5C49 10.969 38.031 0 24.5 0C10.969 0 0 10.969 0 24.5C0 38.031 10.969 49 24.5 49ZM36.1375 41.4016C41.5025 37.7005 45.0187 31.5109 45.0187 24.5C45.0187 13.1678 35.8322 3.98124 24.5 3.98124C13.1678 3.98124 3.98123 13.1678 3.98123 24.5C3.98123 31.5774 7.5644 37.8178 13.0156 41.5063C13.7162 41.3132 14.291 41.1339 14.8267 40.9667C16.8668 40.33 18.3405 39.8701 24.0406 39.5062C24.3219 39.5233 24.5914 39.5394 24.8505 39.5549C29.2444 39.8174 30.6427 39.901 36.1375 41.4016Z" fill="url(#paint4_linear_1553_1159)"/>
<defs>
<linearGradient id="paint0_linear_1553_1159" x1="20.9515" y1="29.033" x2="28.6291" y2="43.507" gradientUnits="userSpaceOnUse">
<stop stop-color="#73DFE7"/>
<stop offset="1" stop-color="#0063F7"/>
</linearGradient>
<linearGradient id="paint1_linear_1553_1159" x1="28.1281" y1="29.033" x2="20.4505" y2="43.507" gradientUnits="userSpaceOnUse">
<stop stop-color="#73DFE7"/>
<stop offset="1" stop-color="#0063F7"/>
</linearGradient>
<linearGradient id="paint2_linear_1553_1159" x1="2.94096" y1="20.2464" x2="15.4709" y2="44.0292" gradientUnits="userSpaceOnUse">
<stop stop-color="#73DFE7"/>
<stop offset="1" stop-color="#0063F7"/>
</linearGradient>
<linearGradient id="paint3_linear_1553_1159" x1="18.5781" y1="12.4634" x2="28.244" y2="20.3177" gradientUnits="userSpaceOnUse">
<stop stop-color="#73DFE7"/>
<stop offset="1" stop-color="#0063F7"/>
</linearGradient>
<linearGradient id="paint4_linear_1553_1159" x1="-15.8274" y1="15.8274" x2="15.8274" y2="64.8274" gradientUnits="userSpaceOnUse">
<stop stop-color="#73DFE7"/>
<stop offset="1" stop-color="#0063F7"/>
</linearGradient>
</defs>
</svg>