<svg width="249" height="49" viewBox="0 0 249 49" fill="none" xmlns="http://www.w3.org/2000/svg">
<path fill-rule="evenodd" clip-rule="evenodd" d="M38.0033 27.0722C33.3949 29.0075 27.4718 31.4948 26.5992 37.4403C29.8148 38.1281 42.9836 39.9656 42.5242 24.8063C41.5111 25.5992 39.8644 26.2907 38.0033 27.0722ZM38.6961 30.625C31.8361 32.2175 29.3555 34.3 28.5899 36.9032C29.4814 36.0116 31.1145 35.3055 32.8283 34.5644C35.2354 33.5236 37.8017 32.4139 38.6961 30.625Z" fill="url(#paint0_linear_144_93)"/>
<path fill-rule="evenodd" clip-rule="evenodd" d="M12.0763 27.0722C16.6848 29.0075 22.6078 31.4948 23.4804 37.4403C20.2648 38.1281 7.09607 39.9656 7.55544 24.8063C8.56856 25.5992 10.2153 26.2907 12.0763 27.0722ZM11.3836 30.625C18.2436 32.2175 20.7242 34.3 21.4899 36.9032C20.5983 36.0116 18.9652 35.3055 17.2514 34.5644C14.8443 33.5236 12.278 32.4139 11.3836 30.625Z" fill="url(#paint1_linear_144_93)"/>
<path d="M20.4743 19.9063C15.115 16.6906 13.5327 14.9552 12.0525 13.3219C10.6744 29.0938 21.5462 28.0219 21.5462 28.0219C20.9337 25.4188 16.34 24.0406 14.9619 20.5188C20.015 23.5813 22.465 24.9594 23.8431 28.7875C24.3025 30.1656 24.3025 30.9313 24.4556 34.7594L25.0681 33.9938L25.8337 34.7594C25.8337 34.1469 25.6806 30.7782 26.2931 28.6344C28.0081 25.0819 29.3556 24.0406 35.1743 20.5188C34.4087 23.275 28.1306 26.7969 28.59 28.0219C29.815 28.0219 39.4618 28.175 38.0837 13.475C34.715 17.15 30.8868 19.1406 29.3556 20.2125C28.1306 21.07 25.9868 24.449 25.0681 26.0313L24.915 25.8781C23.2306 22.9688 23.0775 21.7438 20.4743 19.9063Z" fill="url(#paint2_linear_144_93)"/>
<path d="M25.068 12.5563C24.7618 12.5563 24.3024 17.3031 24.3024 21.8969C19.0962 17.4563 22.0055 12.25 25.068 7.96252C31.9587 16.8438 27.3649 20.825 25.8337 21.8969C25.8337 20.2125 25.8337 13.0156 25.068 12.5563Z" fill="url(#paint3_linear_144_93)"/>
<path fill-rule="evenodd" clip-rule="evenodd" d="M25 49C38.531 49 49.5 38.031 49.5 24.5C49.5 10.969 38.531 0 25 0C11.469 0 0.5 10.969 0.5 24.5C0.5 38.031 11.469 49 25 49ZM36.6375 41.4016C42.0025 37.7005 45.5187 31.5109 45.5187 24.5C45.5187 13.1678 36.3322 3.98124 25 3.98124C13.6678 3.98124 4.48123 13.1678 4.48123 24.5C4.48123 31.5774 8.0644 37.8178 13.5156 41.5063C14.2162 41.3132 14.791 41.1339 15.3267 40.9667C17.3668 40.33 18.8405 39.8701 24.5406 39.5062C24.8219 39.5233 25.0914 39.5394 25.3505 39.5549C29.7444 39.8174 31.1427 39.901 36.6375 41.4016Z" fill="url(#paint4_linear_144_93)"/>
<path d="M66.735 35.315C65.5683 35.315 64.6 35.0583 63.83 34.545C63.0833 34.0083 62.5817 33.25 62.325 32.27L56.83 10.71C57.39 10.36 58.1133 10.185 59 10.185C59.8633 10.185 60.575 10.395 61.135 10.815C61.695 11.2117 62.0683 11.7833 62.255 12.53L65.195 25.795L64.495 28.49L64.81 28.595L69.57 11.76C69.71 11.27 69.955 10.885 70.305 10.605C70.6783 10.325 71.1217 10.185 71.635 10.185C72.1483 10.185 72.5917 10.325 72.965 10.605C73.3383 10.885 73.595 11.27 73.735 11.76L77.55 26.11L76.885 28.945L77.27 29.05L81.05 12.53C81.2133 11.7833 81.5633 11.2117 82.1 10.815C82.66 10.395 83.3833 10.185 84.27 10.185C85.1333 10.185 85.8683 10.36 86.475 10.71L80.945 32.27C80.6883 33.25 80.175 34.0083 79.405 34.545C78.6583 35.0583 77.7017 35.315 76.535 35.315L71.215 15.855L70.9 15.96L71.46 18.025L66.735 35.315ZM95.1706 35.315C93.7239 35.315 92.4056 35.035 91.2156 34.475C90.0256 33.8917 89.0806 33.11 88.3806 32.13C87.6806 31.1267 87.3306 30.0067 87.3306 28.77V24.115C87.3306 22.8083 87.6923 21.63 88.4156 20.58C89.1389 19.53 90.0956 18.7017 91.2856 18.095C92.4989 17.4883 93.8056 17.185 95.2056 17.185C96.5823 17.185 97.8423 17.4767 98.9856 18.06C100.152 18.62 101.074 19.4133 101.751 20.44C102.427 21.4433 102.766 22.5983 102.766 23.905V25.865C102.766 26.3783 102.567 26.81 102.171 27.16C101.797 27.51 101.319 27.685 100.736 27.685H91.5656V28.455C91.5656 29.4583 91.8689 30.275 92.4756 30.905C93.0823 31.535 93.9923 31.85 95.2056 31.85C96.3723 31.85 97.2356 31.5933 97.7956 31.08C98.3789 30.5667 98.6706 29.9017 98.6706 29.085C99.0906 29.0383 99.3823 29.015 99.5456 29.015C100.409 29.015 101.086 29.2133 101.576 29.61C102.066 29.9833 102.311 30.52 102.311 31.22C102.311 31.8967 101.996 32.55 101.366 33.18C100.736 33.81 99.8723 34.3233 98.7756 34.72C97.6789 35.1167 96.4773 35.315 95.1706 35.315ZM98.8106 24.57V23.905C98.8106 22.925 98.4723 22.1317 97.7956 21.525C97.1189 20.9183 96.2439 20.615 95.1706 20.615C94.0973 20.615 93.2223 20.9183 92.5456 21.525C91.8923 22.1083 91.5656 22.9017 91.5656 23.905V24.57H98.8106ZM111.874 35.315C109.938 35.315 108.468 34.7667 107.464 33.67C106.484 32.55 105.994 31.1383 105.994 29.435V12.845C105.994 11.8883 106.344 11.2117 107.044 10.815C107.768 10.395 108.876 10.185 110.369 10.185V29.26C110.369 30.0533 110.544 30.6367 110.894 31.01C111.244 31.36 111.804 31.535 112.574 31.535C113.438 31.535 114.301 31.3133 115.164 30.87C115.398 31.08 115.573 31.3483 115.689 31.675C115.829 31.9783 115.899 32.2933 115.899 32.62C115.899 33.32 115.549 33.95 114.849 34.51C114.149 35.0467 113.158 35.315 111.874 35.315ZM123.769 35.315C121.832 35.315 120.362 34.7667 119.359 33.67C118.379 32.55 117.889 31.1383 117.889 29.435V12.845C117.889 11.8883 118.239 11.2117 118.939 10.815C119.662 10.395 120.771 10.185 122.264 10.185V29.26C122.264 30.0533 122.439 30.6367 122.789 31.01C123.139 31.36 123.699 31.535 124.469 31.535C125.332 31.535 126.196 31.3133 127.059 30.87C127.292 31.08 127.467 31.3483 127.584 31.675C127.724 31.9783 127.794 32.2933 127.794 32.62C127.794 33.32 127.444 33.95 126.744 34.51C126.044 35.0467 125.052 35.315 123.769 35.315ZM130.812 20.545C130.812 19.4717 131.15 18.6433 131.827 18.06C132.527 17.4767 133.577 17.185 134.977 17.185V19.285C134.697 19.6117 134.417 19.985 134.137 20.405L134.347 20.545C135.047 19.495 135.945 18.6783 137.042 18.095C138.139 17.4883 139.352 17.185 140.682 17.185C141.872 17.185 142.922 17.4533 143.832 17.99C144.742 18.5267 145.442 19.2617 145.932 20.195C146.445 21.1283 146.702 22.1783 146.702 23.345V32.655C146.702 33.5883 146.34 34.265 145.617 34.685C144.894 35.105 143.797 35.315 142.327 35.315V23.975C142.327 23.0883 142.059 22.365 141.522 21.805C141.009 21.245 140.25 20.965 139.247 20.965C138.057 20.965 137.077 21.3383 136.307 22.085C135.537 22.8083 135.152 23.7183 135.152 24.815V32.655C135.152 33.5883 134.802 34.265 134.102 34.685C133.402 35.105 132.305 35.315 130.812 35.315V20.545ZM150.602 12.635C150.602 12.0517 150.824 11.55 151.267 11.13C151.734 10.71 152.294 10.5 152.947 10.5H168.557C168.557 11.9 168.312 12.9267 167.822 13.58C167.355 14.21 166.585 14.525 165.512 14.525H155.292V20.615H164.602C164.602 22.015 164.357 23.0417 163.867 23.695C163.4 24.325 162.63 24.64 161.557 24.64H155.292V30.975H166.247C167.297 30.975 168.055 31.3017 168.522 31.955C169.012 32.585 169.257 33.6 169.257 35H152.947C152.294 35 151.734 34.8017 151.267 34.405C150.824 33.985 150.602 33.4717 150.602 32.865V12.635ZM176.886 35.315C175.696 35.315 174.599 35.0817 173.596 34.615C172.616 34.1483 171.822 33.4833 171.216 32.62C170.632 31.7333 170.341 30.6833 170.341 29.47C170.341 28.2567 170.656 27.2067 171.286 26.32C171.916 25.41 172.767 24.7217 173.841 24.255C174.937 23.765 176.139 23.52 177.446 23.52C178.519 23.52 179.476 23.695 180.316 24.045C181.179 24.3717 181.972 24.8733 182.696 25.55L182.871 25.375C182.661 25.165 182.299 24.85 181.786 24.43V23.73C181.786 22.7733 181.447 22.015 180.771 21.455C180.094 20.895 179.149 20.615 177.936 20.615C175.766 20.615 174.167 21.4083 173.141 22.995C172.627 22.8317 172.196 22.575 171.846 22.225C171.496 21.8517 171.321 21.455 171.321 21.035C171.321 20.335 171.636 19.6933 172.266 19.11C172.896 18.5267 173.747 18.06 174.821 17.71C175.894 17.36 177.061 17.185 178.321 17.185C180.794 17.185 182.707 17.7683 184.061 18.935C185.414 20.0783 186.091 21.6417 186.091 23.625V32.375C186.091 33.4017 185.764 34.1483 185.111 34.615C184.457 35.0817 183.431 35.315 182.031 35.315V33.88C182.427 33.4833 182.696 33.1917 182.836 33.005L182.696 32.83C181.926 33.6467 181.097 34.265 180.211 34.685C179.347 35.105 178.239 35.315 176.886 35.315ZM178.006 32.13C179.219 32.13 180.164 31.8967 180.841 31.43C181.517 30.9633 181.856 30.2983 181.856 29.435C181.856 28.595 181.506 27.93 180.806 27.44C180.129 26.95 179.207 26.705 178.041 26.705C176.967 26.705 176.116 26.95 175.486 27.44C174.879 27.9067 174.576 28.5717 174.576 29.435C174.576 30.3217 174.879 30.9983 175.486 31.465C176.092 31.9083 176.932 32.13 178.006 32.13ZM196.604 35.315C194.364 35.315 192.555 34.9183 191.179 34.125C189.825 33.3083 189.137 32.2233 189.114 30.87C189.114 30.2867 189.347 29.7967 189.814 29.4C190.304 29.0033 191.074 28.7933 192.124 28.77C192.334 29.7967 192.824 30.59 193.594 31.15C194.364 31.6867 195.297 31.955 196.394 31.955C197.584 31.955 198.517 31.8033 199.194 31.5C199.87 31.1967 200.209 30.7417 200.209 30.135C200.209 29.575 199.929 29.1083 199.369 28.735C198.832 28.3617 197.759 27.9883 196.149 27.615C194.399 27.195 193.034 26.775 192.054 26.355C191.097 25.935 190.385 25.3983 189.919 24.745C189.452 24.0917 189.219 23.2283 189.219 22.155C189.219 20.6617 189.849 19.46 191.109 18.55C192.369 17.64 194.095 17.185 196.289 17.185C198.412 17.185 200.174 17.57 201.574 18.34C202.974 19.0867 203.674 20.09 203.674 21.35C203.674 21.98 203.44 22.4467 202.974 22.75C202.507 23.0533 201.737 23.2167 200.664 23.24C200.43 22.3067 199.987 21.6067 199.334 21.14C198.68 20.6733 197.759 20.44 196.569 20.44C195.682 20.44 194.912 20.5917 194.259 20.895C193.629 21.1983 193.314 21.595 193.314 22.085C193.314 22.5983 193.582 22.995 194.119 23.275C194.655 23.555 195.589 23.835 196.919 24.115C199.532 24.675 201.422 25.4217 202.589 26.355C203.779 27.2883 204.374 28.56 204.374 30.17C204.374 31.7333 203.674 32.9817 202.274 33.915C200.897 34.8483 199.007 35.315 196.604 35.315ZM215.141 35.315C213.695 35.315 212.376 35.035 211.186 34.475C209.996 33.8917 209.051 33.11 208.351 32.13C207.651 31.1267 207.301 30.0067 207.301 28.77V24.115C207.301 22.8083 207.663 21.63 208.386 20.58C209.11 19.53 210.066 18.7017 211.256 18.095C212.47 17.4883 213.776 17.185 215.176 17.185C216.553 17.185 217.813 17.4767 218.956 18.06C220.123 18.62 221.045 19.4133 221.721 20.44C222.398 21.4433 222.736 22.5983 222.736 23.905V25.865C222.736 26.3783 222.538 26.81 222.141 27.16C221.768 27.51 221.29 27.685 220.706 27.685H211.536V28.455C211.536 29.4583 211.84 30.275 212.446 30.905C213.053 31.535 213.963 31.85 215.176 31.85C216.343 31.85 217.206 31.5933 217.766 31.08C218.35 30.5667 218.641 29.9017 218.641 29.085C219.061 29.0383 219.353 29.015 219.516 29.015C220.38 29.015 221.056 29.2133 221.546 29.61C222.036 29.9833 222.281 30.52 222.281 31.22C222.281 31.8967 221.966 32.55 221.336 33.18C220.706 33.81 219.843 34.3233 218.746 34.72C217.65 35.1167 216.448 35.315 215.141 35.315ZM218.781 24.57V23.905C218.781 22.925 218.443 22.1317 217.766 21.525C217.09 20.9183 216.215 20.615 215.141 20.615C214.068 20.615 213.193 20.9183 212.516 21.525C211.863 22.1083 211.536 22.9017 211.536 23.905V24.57H218.781Z" fill="#0E0A39"/>
<defs>
<linearGradient id="paint0_linear_144_93" x1="21.4515" y1="29.033" x2="29.1291" y2="43.5071" gradientUnits="userSpaceOnUse">
<stop stop-color="#73DFE7"/>
<stop offset="1" stop-color="#0063F7"/>
</linearGradient>
<linearGradient id="paint1_linear_144_93" x1="28.6281" y1="29.033" x2="20.9506" y2="43.5071" gradientUnits="userSpaceOnUse">
<stop stop-color="#73DFE7"/>
<stop offset="1" stop-color="#0063F7"/>
</linearGradient>
<linearGradient id="paint2_linear_144_93" x1="3.44097" y1="20.2464" x2="15.9709" y2="44.0292" gradientUnits="userSpaceOnUse">
<stop stop-color="#73DFE7"/>
<stop offset="1" stop-color="#0063F7"/>
</linearGradient>
<linearGradient id="paint3_linear_144_93" x1="19.0781" y1="12.4635" x2="28.744" y2="20.3177" gradientUnits="userSpaceOnUse">
<stop stop-color="#73DFE7"/>
<stop offset="1" stop-color="#0063F7"/>
</linearGradient>
<linearGradient id="paint4_linear_144_93" x1="-15.3274" y1="15.8274" x2="16.3274" y2="64.8274" gradientUnits="userSpaceOnUse">
<stop stop-color="#73DFE7"/>
<stop offset="1" stop-color="#0063F7"/>
</linearGradient>
</defs>
</svg>
