<svg width="131" height="129" viewBox="0 0 131 129" fill="none" xmlns="http://www.w3.org/2000/svg">
<path fill-rule="evenodd" clip-rule="evenodd" d="M21.0011 0H109.385C115.051 1.27477 127.062 7.2237 129.781 20.8212C130.476 33.3266 130.035 78.4886 129.851 97.3429C129.81 101.552 129.781 104.45 129.781 105.381C129.357 110.055 124.682 124.078 105.561 127.902C93.0251 128.662 39.0585 128.063 26.8453 127.928C25.3968 127.912 24.5356 127.902 24.4005 127.902C2.30444 124.078 1.02967 101.132 1.02967 101.132C1.02967 101.132 0.60476 38.2431 1.02967 20.8212C6.55367 2.12462 21.0011 0 21.0011 0ZM13.3525 24.2204C14.4856 20.1128 19.0464 11.7277 28.2248 11.0478C37.4031 10.3679 80.7737 10.7645 101.312 11.0478C107.685 11.8976 114.059 13.1724 117.884 24.2204V99.6477C117.884 105.806 113.974 112.604 106.836 114.304C94.5128 108.355 83.0399 105.806 65.6181 105.381C49.046 105.806 29.4995 110.905 24.4005 114.304C19.3014 112.604 15.0522 110.48 13.3525 99.8568C11.9927 91.3583 12.7859 45.8915 13.3525 24.2204Z" fill="url(#paint0_linear_899_2674)"/>
<path fill-rule="evenodd" clip-rule="evenodd" d="M101.514 70.8764C88.7252 76.2468 72.2887 83.1491 69.8672 99.648C78.7906 101.557 115.334 106.656 114.059 64.5884C111.248 66.7887 106.678 68.7076 101.514 70.8764ZM103.436 80.7357C84.3996 85.1549 77.5159 90.9338 75.3912 98.1575C77.8653 95.6835 82.3971 93.7239 87.1529 91.6675C93.8326 88.7792 100.954 85.6998 103.436 80.7357Z" fill="url(#paint1_linear_899_2674)"/>
<path fill-rule="evenodd" clip-rule="evenodd" d="M29.5658 70.8764C42.3544 76.2468 58.7909 83.1491 61.2124 99.648C52.289 101.557 15.7456 106.656 17.0204 64.5884C19.8318 66.7887 24.4014 68.7076 29.5658 70.8764ZM27.6435 80.7357C46.6801 85.1549 53.5639 90.9338 55.6885 98.1575C53.2144 95.6835 48.6826 93.7239 43.9268 91.6675C37.2471 88.7792 30.1256 85.6998 27.6435 80.7357Z" fill="url(#paint2_linear_899_2674)"/>
<path d="M52.8702 50.9907C37.9979 42.0673 33.607 37.2515 29.4994 32.719C25.6751 76.4861 55.8447 73.5116 55.8447 73.5116C54.145 66.2879 41.3973 62.4636 37.573 52.6904C51.5954 61.1889 58.3942 65.0132 62.2185 75.6363C63.4933 79.4606 63.4933 81.5852 63.9182 92.2083L65.6179 90.0837L67.7425 92.2083C67.7425 90.5086 67.3176 81.1603 69.0173 75.2113C73.7764 65.3531 77.5158 62.4636 93.6628 52.6904C91.5382 60.339 74.1164 70.1123 75.3911 73.5116C78.7905 73.5116 105.561 73.9366 101.736 33.1439C92.3881 43.3421 81.765 48.8661 77.5158 51.8405C74.1164 54.2201 68.1674 63.5968 65.6179 67.9876L65.193 67.5627C60.5188 59.4892 60.0939 56.0898 52.8702 50.9907Z" fill="url(#paint3_linear_899_2674)"/>
<path d="M65.6181 30.5944C64.7683 30.5944 63.4935 43.767 63.4935 56.5147C49.0461 44.1919 57.1197 29.7445 65.6181 17.8466C84.7397 42.4922 71.992 53.5402 67.7428 56.5147C67.7428 51.8405 67.7428 31.8691 65.6181 30.5944Z" fill="url(#paint4_linear_899_2674)"/>
<defs>
<linearGradient id="paint0_linear_899_2674" x1="-40.9302" y1="41.4355" x2="41.6643" y2="170.322" gradientUnits="userSpaceOnUse">
<stop stop-color="#73DFE7"/>
<stop offset="1" stop-color="#0063F7"/>
</linearGradient>
<linearGradient id="paint1_linear_899_2674" x1="55.5823" y1="76.3176" x2="76.8877" y2="116.483" gradientUnits="userSpaceOnUse">
<stop stop-color="#73DFE7"/>
<stop offset="1" stop-color="#0063F7"/>
</linearGradient>
<linearGradient id="paint2_linear_899_2674" x1="75.4973" y1="76.3176" x2="54.1919" y2="116.483" gradientUnits="userSpaceOnUse">
<stop stop-color="#73DFE7"/>
<stop offset="1" stop-color="#0063F7"/>
</linearGradient>
<linearGradient id="paint3_linear_899_2674" x1="5.60242" y1="51.9346" x2="40.3732" y2="117.932" gradientUnits="userSpaceOnUse">
<stop stop-color="#73DFE7"/>
<stop offset="1" stop-color="#0063F7"/>
</linearGradient>
<linearGradient id="paint4_linear_899_2674" x1="48.996" y1="30.3368" x2="75.819" y2="52.1323" gradientUnits="userSpaceOnUse">
<stop stop-color="#73DFE7"/>
<stop offset="1" stop-color="#0063F7"/>
</linearGradient>
</defs>
</svg>
